<svg width="32" height="32" viewBox="0 0 32 32" fill="none" xmlns="http://www.w3.org/2000/svg">
<rect width="32" height="32" rx="5.64706" fill="black"/>
<path d="M23.0586 24.0314V27.2942H5.05859V4.70593H26.9409V21.7726H17.8653V20.2667C17.6132 20.8189 17.2351 21.2539 16.7309 21.5718C16.2267 21.873 15.6048 22.0236 14.8653 22.0236C13.9746 22.0236 13.2015 21.7391 12.546 21.1702C11.9073 20.5846 11.4199 19.8317 11.0838 18.9114C10.7645 17.9912 10.6048 17.0207 10.6048 16.0001C10.6048 14.9794 10.7645 14.0089 11.0838 13.0887C11.4199 12.1684 11.9073 11.4238 12.546 10.855C13.2015 10.2693 13.9746 9.97652 14.8653 9.97652C15.6048 9.97652 16.2267 10.1355 16.7309 10.4534C17.2351 10.7546 17.6132 11.1812 17.8653 11.7334V10.2275H21.3947V18.0079H23.4115V7.96868H8.58801V24.0314H23.0586ZM15.9998 18.5099C16.6888 18.5099 17.1678 18.3174 17.4367 17.9326C17.7225 17.5478 17.8653 16.9036 17.8653 16.0001C17.8653 15.0965 17.7225 14.4523 17.4367 14.0675C17.1678 13.6827 16.6888 13.4902 15.9998 13.4902C15.3443 13.4902 14.8653 13.691 14.5628 14.0926C14.2771 14.4774 14.1342 15.1133 14.1342 16.0001C14.1342 16.8868 14.2771 17.531 14.5628 17.9326C14.8653 18.3174 15.3443 18.5099 15.9998 18.5099Z" fill="#00FF0A"/>
</svg>
